<svg width="27" height="27" viewBox="0 0 27 27" fill="none" xmlns="http://www.w3.org/2000/svg">
<path d="M13.6438 14.4338C13.56 14.4218 13.4523 14.4218 13.3565 14.4338C11.2494 14.362 9.57334 12.638 9.57334 10.5189C9.57334 8.352 11.3213 6.5921 13.5002 6.5921C15.6671 6.5921 17.427 8.352 17.427 10.5189C17.4151 12.638 15.7509 14.362 13.6438 14.4338Z" stroke="white" stroke-width="3" stroke-linecap="round" stroke-linejoin="round"/>
<path d="M21.569 22.3354C19.438 24.2869 16.6126 25.4721 13.4998 25.4721C10.3871 25.4721 7.56165 24.2869 5.43062 22.3354C5.55034 21.2101 6.26866 20.1086 7.54968 19.2466C10.83 17.0677 16.1935 17.0677 19.4499 19.2466C20.731 20.1086 21.4493 21.2101 21.569 22.3354Z" stroke="white" stroke-width="3" stroke-linecap="round" stroke-linejoin="round"/>
<path d="M13.5 25.4721C20.112 25.4721 25.4721 20.112 25.4721 13.5C25.4721 6.88796 20.112 1.52787 13.5 1.52787C6.88796 1.52787 1.52787 6.88796 1.52787 13.5C1.52787 20.112 6.88796 25.4721 13.5 25.4721Z" stroke="white" stroke-width="3" stroke-linecap="round" stroke-linejoin="round"/>
</svg>
